<svg width="24" height="14" viewBox="0 0 24 14" fill="none" xmlns="http://www.w3.org/2000/svg" style="margin-right: .5rem">
                    <path d="M23.9941 2.23743C23.9941 6.38943 3.97909 10.9724 2.46409 10.9724C1.61409 10.9724 0.65009 10.7724 0.65009 9.99343C0.65009 9.73143 0.95009 9.35343 1.48209 8.89343L0.0820899 6.39343C0.0374033 6.31378 0.0102271 6.2255 0.00237626 6.13451C-0.0054746 6.04351 0.00618059 5.95189 0.0365634 5.86576C0.0669463 5.77962 0.115357 5.70097 0.178564 5.63504C0.24177 5.5691 0.318316 5.51742 0.40309 5.48343L0.64409 5.38343C0.860242 5.29648 1.09278 5.25778 1.32544 5.27005C1.5581 5.28231 1.78528 5.34524 1.99109 5.45443L4.54209 6.80443C5.53509 6.21543 6.66209 5.59843 7.84909 4.99143L2.87309 1.77843C2.78289 1.71967 2.70891 1.63918 2.65796 1.54434C2.60701 1.44951 2.58072 1.34339 2.58152 1.23574C2.58232 1.12809 2.61017 1.02237 2.66252 0.928307C2.71487 0.83424 2.79003 0.754847 2.88109 0.697431L3.28809 0.442431C3.62285 0.232108 3.99725 0.092783 4.38807 0.0330935C4.77889 -0.0265961 5.17781 -0.0053785 5.56009 0.0954309L13.8291 2.27643C15.8213 1.37379 17.9439 0.792581 20.1181 0.554431C20.4861 0.554431 20.8551 0.564431 21.2121 0.589431L18.7121 1.71643L18.6521 2.55643L22.5071 0.784431C23.4321 1.00443 23.9941 1.41543 23.9941 2.23743ZM13.9351 9.40443L17.0191 12.9044C17.1106 13.0084 17.2333 13.0799 17.3688 13.1084C17.5044 13.1368 17.6455 13.1207 17.7711 13.0624L18.1841 12.8704C18.5512 12.6996 18.8552 12.4174 19.0527 12.0639C19.2501 11.7104 19.3311 11.3036 19.2841 10.9014L18.8981 7.60143C18.8924 7.55369 18.8761 7.50783 18.8503 7.46725C18.8245 7.42666 18.79 7.39239 18.7492 7.36695C18.7084 7.34151 18.6624 7.32556 18.6146 7.32028C18.5668 7.315 18.5185 7.32052 18.4731 7.33643L14.0731 8.88743C14.0229 8.90433 13.9776 8.93339 13.9414 8.97204C13.9051 9.01068 13.879 9.05769 13.8653 9.10889C13.8516 9.16008 13.8509 9.21386 13.863 9.26543C13.8752 9.317 13.9 9.36475 13.9351 9.40443V9.40443Z" fill="#263366"></path>
                  </svg>