<svg width="23" height="23" viewBox="0 0 23 23" fill="none" xmlns="http://www.w3.org/2000/svg">
<path d="M22.4387 19.7285L17.5731 14.8629C18.5784 13.3478 19.1669 11.5337 19.1669 9.58343C19.1669 4.29913 14.8677 0 9.58343 0C4.29913 0 0 4.29913 0 9.58343C0 14.8677 4.29913 19.1669 9.58343 19.1669C11.5337 19.1669 13.3478 18.5784 14.8629 17.5731L19.7285 22.4387C20.476 23.1871 21.6911 23.1871 22.4387 22.4387C23.1871 21.6902 23.1871 20.4769 22.4387 19.7285ZM2.87503 9.58343C2.87503 5.88423 5.88423 2.87503 9.58343 2.87503C13.2826 2.87503 16.2918 5.88423 16.2918 9.58343C16.2918 13.2826 13.2826 16.2918 9.58343 16.2918C5.88423 16.2918 2.87503 13.2826 2.87503 9.58343Z" fill="black"/>
</svg>
