<svg width="24" height="18" viewBox="0 0 24 18" fill="none" xmlns="http://www.w3.org/2000/svg" style="margin-right: .5rem">
                    <path d="M23.015 0H0.986C0.724751 0.000264154 0.474263 0.104094 0.289438 0.288731C0.104613 0.473369 0.000529247 0.723751 0 0.985L0 10.209C0.000264732 10.4704 0.104232 10.7211 0.289085 10.9059C0.473939 11.0908 0.724578 11.1947 0.986 11.195H23.015C23.2762 11.1945 23.5266 11.0904 23.7113 10.9056C23.8959 10.7207 23.9997 10.4702 24 10.209V0.985C23.9995 0.723924 23.8955 0.473692 23.7109 0.289083C23.5263 0.104475 23.2761 0.000528495 23.015 0V0ZM7.979 4.431L7.311 5.099L7.887 6.699C7.91825 6.78587 7.93209 6.87804 7.92772 6.97026C7.92336 7.06248 7.90087 7.15293 7.86154 7.23646C7.82222 7.31999 7.76682 7.39495 7.69853 7.45707C7.63023 7.51919 7.55037 7.56725 7.4635 7.5985C7.37663 7.62975 7.28446 7.64359 7.19224 7.63923C7.10002 7.63486 7.00957 7.61237 6.92604 7.57304C6.84251 7.53372 6.76755 7.47832 6.70543 7.41003C6.64331 7.34173 6.59525 7.26187 6.564 7.175L6.212 6.196L5.9 6.515V7.162C5.9 7.34845 5.82593 7.52726 5.6941 7.6591C5.56226 7.79093 5.38345 7.865 5.197 7.865C5.01055 7.865 4.83174 7.79093 4.6999 7.6591C4.56807 7.52726 4.494 7.34845 4.494 7.162V6.926H4.23C4.04355 6.926 3.86474 6.85193 3.7329 6.7201C3.60107 6.58826 3.527 6.40945 3.527 6.223C3.527 6.03655 3.60107 5.85774 3.7329 5.7259C3.86474 5.59407 4.04355 5.52 4.23 5.52H4.9L5.217 5.203L4.24 4.851C4.1532 4.81975 4.0734 4.7717 4.00516 4.70961C3.93693 4.64751 3.88159 4.57259 3.84231 4.48911C3.76298 4.32051 3.75388 4.12731 3.817 3.952C3.88012 3.77669 4.0103 3.63364 4.17889 3.55431C4.34749 3.47498 4.54069 3.46588 4.716 3.529L6.316 4.105L6.984 3.437C7.04927 3.37173 7.12675 3.31996 7.21203 3.28464C7.2973 3.24932 7.3887 3.23114 7.481 3.23114C7.5733 3.23114 7.6647 3.24932 7.74997 3.28464C7.83525 3.31996 7.91273 3.37173 7.978 3.437C8.04327 3.50227 8.09504 3.57975 8.13036 3.66503C8.16568 3.7503 8.18386 3.8417 8.18386 3.934C8.18386 4.0263 8.16568 4.1177 8.13036 4.20297C8.09504 4.28825 8.04327 4.36573 7.978 4.431H7.979ZM20.233 7.395H11.753C11.5666 7.395 11.3877 7.32093 11.2559 7.1891C11.1241 7.05726 11.05 6.87845 11.05 6.692C11.05 6.50555 11.1241 6.32674 11.2559 6.1949C11.3877 6.06307 11.5666 5.989 11.753 5.989H20.234C20.4204 5.989 20.5993 6.06307 20.7311 6.1949C20.8629 6.32674 20.937 6.50555 20.937 6.692C20.937 6.87845 20.8629 7.05726 20.7311 7.1891C20.5993 7.32093 20.4204 7.395 20.234 7.395H20.233ZM20.233 4.895H16.133C15.9466 4.895 15.7677 4.82093 15.6359 4.6891C15.5041 4.55726 15.43 4.37845 15.43 4.192C15.43 4.00555 15.5041 3.82674 15.6359 3.6949C15.7677 3.56307 15.9466 3.489 16.133 3.489H20.233C20.3253 3.489 20.4167 3.50718 20.502 3.54251C20.5873 3.57784 20.6648 3.62962 20.7301 3.6949C20.7954 3.76018 20.8472 3.83768 20.8825 3.92297C20.9178 4.00827 20.936 4.09968 20.936 4.192C20.936 4.28432 20.9178 4.37573 20.8825 4.46103C20.8472 4.54632 20.7954 4.62382 20.7301 4.6891C20.6648 4.75438 20.5873 4.80616 20.502 4.84149C20.4167 4.87682 20.3253 4.895 20.233 4.895V4.895Z" fill="#263366"></path>
                    <path d="M4.493 12.524L19.3 17.572C19.4131 17.6104 19.533 17.6253 19.6521 17.6156C19.7712 17.6059 19.887 17.5719 19.9924 17.5156C20.0979 17.4594 20.1906 17.3821 20.265 17.2886C20.3394 17.1951 20.3939 17.0874 20.425 16.972L21.646 12.521H4.493V12.524Z" fill="#263366"></path>
                  </svg>